HIERARCHY
ROOT Hips
{
  OFFSET 0 0 0
  CHANNELS 6 Xposition Yposition Zposition Zrotation Yrotation Xrotation
  JOINT LeftThigh
  {
    OFFSET 8.409438 0 -5.917753
    CHANNELS 3 Zrotation Yrotation Xrotation
    JOINT LeftLeg
    {
      OFFSET 0 0 -42.358652
      CHANNELS 3 Zrotation Yrotation Xrotation
      JOINT LeftFoot
      {
        OFFSET 0 0 -39.357303
        CHANNELS 3 Zrotation Yrotation Xrotation
      }
    }
  }
  JOINT RightThigh
  {
    OFFSET -8.409438 0 -5.917753
    CHANNELS 3 Zrotation Yrotation Xrotation
    JOINT RightLeg
    {
      OFFSET 0 0 -42.358652
      CHANNELS 3 Zrotation Yrotation Xrotation
      JOINT RightFoot
      {
        OFFSET 0 0 -39.357303
        CHANNELS 3 Zrotation Yrotation Xrotation
      }
    }
  }
  JOINT SpineLow
  {
    OFFSET 0 0 4.719101
    CHANNELS 3 Zrotation Yrotation Xrotation
    JOINT SpineMid
    {
      OFFSET 0 0 12.899191
      CHANNELS 3 Zrotation Yrotation Xrotation
      JOINT Chest
      {
        OFFSET 0 0 12.899191
        CHANNELS 3 Zrotation Yrotation Xrotation
        JOINT LeftShoulder
        {
          OFFSET 7.550562 1.41573 9.438202
          CHANNELS 3 Zrotation Yrotation Xrotation
          JOINT LeftArm
          {
            OFFSET 9.155056 0 4.247191
            CHANNELS 3 Zrotation Yrotation Xrotation
            JOINT LeftForearm
            {
              OFFSET 0 0 25.771955
              CHANNELS 3 Zrotation Yrotation Xrotation
              JOINT LeftHand
              {
                OFFSET 0 0 25.197169
                CHANNELS 3 Zrotation Yrotation Xrotation
              }
            }
          }
        }
        JOINT RightShoulder
        {
          OFFSET -7.550562 1.41573 9.438202
          CHANNELS 3 Zrotation Yrotation Xrotation
          JOINT RightArm
          {
            OFFSET -9.155056 0 4.247191
            CHANNELS 3 Zrotation Yrotation Xrotation
            JOINT RightForearm
            {
              OFFSET 0 0 -25.771955
              CHANNELS 3 Zrotation Yrotation Xrotation
              JOINT RightHand
              {
                OFFSET 0 0 -25.197169
                CHANNELS 3 Zrotation Yrotation Xrotation
              }
            }
          }
        }
        JOINT Neck
        {
          OFFSET 0 0 15.101124
          CHANNELS 3 Zrotation Yrotation Xrotation
          JOINT Head
          {
            OFFSET 0 0 11.325843
            CHANNELS 3 Zrotation Yrotation Xrotation
            End Site
            {
              OFFSET 0 0 14.157303
            }
          }
        }
      }
    }
  }
}
MOTION
Frames: 11
Frame Time: 0.0
0.0  93.25843  0.0  -3.366758  12.113129  -114.693027  9.75982  -11.245415  7.521437  -9.947298  2.427778  19.947316  -8.506311  -1.67679  -1.505644  20.008388  -26.439008  -94.441707  -0.749909  24.251664  17.247441  -0.337225  1.530815  4.299211  0.092726  -1.705678  1.617277  0.139352  -4.666101  4.420883  0.139352  -4.666101  4.420883  -19.270084  30.538256  14.057747  117.98604  45.360684  -166.4919  -24.398061  15.323844  82.200194  62.285322  -18.124162  12.453166  4.398743  -12.846917  30.929481  64.926821  75.819636  7.155056  -40.522055  -20.615689  -88.019176  46.684364  -11.040106  -24.272058  -6.627838  5.690629  15.351299  -5.113994  4.105234  11.56743  
0.0  93.25843  0.0  -3.4483  12.244838  -114.632874  9.800183  -11.406035  7.245542  -10.671874  3.024124  19.932028  -8.127761  -1.760183  -1.289523  20.093412  -31.083421  -94.767514  3.486839  27.249767  22.760573  0.26312  2.305027  4.887007  0.064088  -1.727595  1.55482  0.064001  -4.724083  4.252034  0.064001  -4.724083  4.252033  -19.373838  30.8093  14.270572  118.109985  45.404437  -166.590634  -24.799807  15.473826  81.807865  62.258745  -18.031757  12.501562  4.144171  -12.797295  31.219127  66.746553  75.916651  8.677205  -40.694792  -20.601423  -88.073775  46.574588  -11.069538  -24.388297  -6.560959  5.89953  15.491414  -5.070263  4.262284  11.673329  
0.0  93.25843  0.0  -3.450237  12.245245  -114.376155  10.126352  -11.319378  6.869376  -11.353014  3.287935  19.886095  -7.526354  -1.779288  -0.960608  20.370236  -34.831275  -95.201259  8.066631  30.520996  28.987432  1.255024  2.812784  5.150234  0.022932  -1.754896  1.420417  -0.040607  -4.796274  3.887196  -0.040607  -4.796274  3.887196  -19.028265  31.302574  14.922365  118.1683  45.554534  -166.683142  -25.351865  15.691714  81.3133  61.125878  -18.181047  13.008479  4.014754  -12.703219  31.823509  68.120322  75.966754  9.792978  -40.637324  -20.80899  -88.153007  46.497358  -11.166098  -24.425204  -6.389177  6.18201  15.793144  -4.951481  4.475653  11.899653  
0.0  93.25843  0.0  -3.414469  12.117593  -113.976892  10.498335  -11.164168  6.325558  -11.458027  3.14462  20.08527  -7.589017  -1.732602  -0.935008  20.562922  -35.829377  -95.827512  11.550254  33.528828  36.424266  2.183287  3.017218  5.29502  -0.001601  -1.758365  1.318714  -0.10054  -4.804582  3.610555  -0.10054  -4.804582  3.610555  -18.616877  31.528744  15.367059  118.005232  45.740214  -166.834091  -26.098037  16.271525  80.970551  60.53333  -17.354352  13.317342  4.051198  -12.727425  32.043112  68.82852  75.944913  10.377171  -40.406717  -21.135561  -88.300454  46.215826  -11.379338  -24.443046  -6.194279  6.297436  15.961521  -4.810008  4.565681  12.024497  
0.0  93.25843  0.0  -3.350164  11.879528  -113.428025  10.876059  -11.11471  5.721715  -11.053024  2.800605  20.405151  -8.183258  -1.582066  -1.174441  20.735308  -33.823042  -96.725606  13.649888  35.896268  45.393489  2.755428  2.971262  5.363785  0.028422  -1.726972  1.302774  -0.015504  -4.720459  3.564558  -0.015504  -4.72046  3.564558  -18.658226  31.251609  15.092996  117.784826  45.848712  -166.990923  -26.577219  16.437633  80.593017  60.44091  -16.693249  13.107465  4.079269  -12.897735  31.528859  69.194718  75.798263  10.62905  -39.926575  -21.776039  -88.615442  46.0725  -11.571977  -24.294514  -6.228965  6.189741  15.755768  -4.831137  4.485934  11.869994  
0.0  93.25843  0.0  -3.248567  11.512072  -112.757639  11.087564  -11.095693  5.063693  -10.50369  2.579212  20.637536  -8.659782  -1.469589  -1.384816  20.738137  -30.839436  -97.466315  15.326186  37.046752  54.965919  3.069912  2.904149  5.549482  0.090965  -1.67344  1.337527  0.156132  -4.577601  3.655076  0.156132  -4.577601  3.655076  -18.908138  30.622058  14.421625  117.703956  45.949317  -166.985838  -26.771326  16.232604  80.272405  60.383233  -16.56194  12.698805  4.164891  -13.141543  30.572261  69.264725  75.595558  10.641124  -39.434393  -22.376519  -88.974597  45.866947  -11.800892  -24.281572  -6.225561  5.90973  15.391966  -4.817982  4.27936  11.595463  
0.0  93.25843  0.0  -3.135655  11.048459  -111.942309  11.556956  -11.150699  4.401943  -10.741999  2.748068  20.32991  -8.437477  -1.41683  -1.280748  20.594595  -27.827391  -97.840796  16.569929  37.134975  64.140841  3.214545  2.867431  5.748211  0.149075  -1.613731  1.3734  0.316028  -4.417792  3.749223  0.316028  -4.417792  3.749223  -19.057619  29.876551  13.684269  118.10017  46.008931  -166.762021  -27.361764  15.939018  79.566113  60.33859  -16.684056  13.034414  4.400287  -13.395467  29.514668  69.486469  75.313418  10.733428  -38.694537  -23.270709  -89.420823  46.180137  -11.773823  -24.206547  -6.135406  5.597732  14.954099  -4.738633  4.051625  11.264276  
0.0  93.25843  0.0  -3.008543  10.399174  -110.998288  11.751215  -11.009368  3.466044  -10.622871  2.829786  20.16007  -8.162346  -1.422694  -1.176093  20.255871  -25.934615  -97.562266  17.844306  36.57051  72.164003  3.54811  2.880887  6.079379  0.201297  -1.566971  1.376998  0.461315  -4.293003  3.755667  0.461315  -4.293003  3.755667  -18.947525  29.254352  13.08103  118.267766  46.066248  -166.601638  -27.57346  15.836795  79.195484  60.631022  -16.964445  12.850888  4.800966  -13.589934  28.618722  70.051176  75.037576  11.16304  -38.336408  -23.657261  -89.77536  46.234993  -11.985928  -24.432065  -5.892192  5.348169  14.538194  -4.546554  3.874065  10.948563  
0.0  93.25843  0.0  -2.801449  9.738693  -109.944038  12.158893  -10.776903  2.480268  -10.619801  2.829127  19.917587  -7.571656  -1.399862  -0.950517  19.36617  -25.606901  -96.214299  19.684277  35.464268  78.862908  4.091571  2.857084  6.405862  0.24739  -1.510744  1.366481  0.591244  -4.141895  3.724117  0.591244  -4.141895  3.724117  -18.849086  28.718134  12.485173  118.620884  46.127641  -166.51483  -28.212646  15.442213  78.691895  60.355334  -16.928042  13.368713  5.283564  -13.768801  27.841826  70.982336  74.872809  11.953403  -37.866906  -24.264673  -90.198162  46.589749  -12.130621  -24.63865  -5.602525  5.129128  14.05489  -4.320049  3.720771  10.582258  
0.0  93.25843  0.0  -2.564376  8.904253  -108.961218  12.794388  -10.527887  1.613036  -10.508339  2.653499  19.632059  -7.458045  -1.379335  -0.957808  18.225069  -26.296431  -93.507759  21.645117  34.401387  84.166983  4.929303  2.500595  6.568881  0.291452  -1.472508  1.355145  0.714609  -4.039783  3.690562  0.714609  -4.039783  3.690562  -18.524318  28.416067  12.04115  118.860146  46.238389  -166.458959  -28.42866  15.395798  78.503444  60.361719  -16.8181  13.327948  5.8348  -13.788028  27.263094  72.306883  74.817426  13.059816  -37.618257  -24.548546  -90.469638  46.618032  -12.403102  -25.110026  -5.220308  5.013078  13.569626  -4.026661  3.646404  10.214478  
0.0  93.25843  0.0  -2.119175  8.773885  -107.718969  12.97517  -9.887742  0.741479  -10.230184  2.385636  19.241504  -7.406739  -1.343661  -0.947741  16.270791  -26.450632  -89.750606  22.847101  33.617706  88.075365  6.178168  1.985842  6.753575  0.203883  -1.33236  1.273378  0.487375  -3.651427  3.472638  0.487375  -3.651426  3.472637  -17.914936  27.988474  11.856448  119.937718  46.303133  -166.352172  -28.666637  15.511522  78.379025  60.0176  -16.504272  13.917748  6.599304  -14.062967  26.983367  73.739839  74.951196  14.300769  -36.957755  -25.464539  -90.909764  47.144116  -12.495247  -25.374753  -4.736916  4.8043  13.153487  -3.656244  3.503495  9.897314  
